<svg xmlns="http://www.w3.org/2000/svg" viewBox="0 0 279 35" fill="#fff">
    <path d="M26.8607 28.0378H6.84496V7.09137H26.8607V28.0378ZM33.7344 0C20.5603 0 13.1741 0 0 0V35H33.7344V0Z"
        fill="#fff" />
    <path d="M24.121 10.1729H10.0674V24.7576H24.121V10.1729Z" fill="#fff" />
    <path
        d="M252.901 33.1981V8.65102L263.361 21.3313L273.845 8.65102V33.1981H278.043V1.7534H274.275L263.361 14.9696L252.465 1.7534H248.694V33.1981H252.901ZM212.733 23.6999C213.547 25.6937 214.751 27.5051 216.274 29.028C217.765 30.5322 219.541 31.7258 221.497 32.5397C223.453 33.3536 225.551 33.7718 227.669 33.77C229.806 33.7873 231.924 33.3766 233.899 32.5622C235.874 31.7478 237.667 30.5461 239.17 29.028C240.662 27.5332 241.845 25.7591 242.651 23.8072C243.457 21.8552 243.871 19.7635 243.869 17.6516C243.889 15.4811 243.482 13.3277 242.673 11.3139C241.855 9.32261 240.649 7.51445 239.124 5.99532C237.645 4.48104 235.873 3.28434 233.916 2.47834C231.936 1.65997 229.814 1.24354 227.672 1.25335C225.56 1.24479 223.468 1.65802 221.518 2.46876C217.565 4.13041 214.422 7.27733 212.766 11.2325C211.954 13.1682 211.535 15.2462 211.534 17.3454C211.517 19.5213 211.924 21.6797 212.733 23.6999ZM217.011 12.8881C217.569 11.4459 218.419 10.1339 219.506 9.03379C220.594 7.92189 221.884 7.02855 223.308 6.40203C224.683 5.79361 226.17 5.4791 227.674 5.47855C229.206 5.47291 230.722 5.78559 232.127 6.39677C233.532 7.00796 234.795 7.90428 235.835 9.029C236.928 10.1619 237.796 11.4927 238.392 12.9503C239.267 15.1303 239.496 17.516 239.05 19.8223C238.605 22.1287 237.506 24.258 235.883 25.956C234.83 27.0764 233.558 27.9675 232.146 28.5734C230.731 29.163 229.214 29.4647 227.681 29.461C226.149 29.4573 224.633 29.1483 223.221 28.5519C221.816 27.9548 220.55 27.0706 219.506 25.956C218.431 24.8426 217.585 23.529 217.015 22.0897C216.437 20.6309 216.142 19.075 216.147 17.5057C216.141 15.9227 216.434 14.3528 217.011 12.8786V12.8881ZM201.801 28.5447C200.082 29.1436 198.275 29.4548 196.454 29.4658C193.014 29.4658 190.158 28.3238 187.887 26.0397C185.615 23.7557 184.479 20.9126 184.477 17.5104C184.477 14.062 185.631 11.1958 187.939 8.91177C190.247 6.62772 193.172 5.48494 196.715 5.48334C198.383 5.49696 200.04 5.75902 201.632 6.26091C203.516 6.86256 205.33 7.66465 207.043 8.65342V3.77985C205.359 2.96308 203.595 2.3217 201.78 1.86585C200.121 1.46224 198.42 1.25822 196.712 1.25814C194.434 1.22819 192.17 1.62834 190.04 2.43763C188.007 3.24322 186.159 4.45364 184.609 5.99532C183.098 7.47279 181.905 9.24364 181.104 11.199C180.287 13.1451 179.866 15.2347 179.867 17.3454C179.843 20.0418 180.487 22.7023 181.74 25.0899C182.976 27.4514 184.786 29.4639 187.004 30.942C188.379 31.8605 189.882 32.57 191.466 33.0474C193.075 33.5275 194.746 33.7693 196.425 33.7652C198.274 33.7582 200.113 33.5047 201.895 33.0115C203.781 32.4896 205.601 31.7544 207.321 30.82V25.7335C205.614 26.9122 203.758 27.8576 201.801 28.5447ZM167.636 33.1981V17.6875L179.785 1.7534H174.57L165.519 13.6848L156.681 1.7534H151.559L163.253 17.465V33.1981H167.636ZM136.917 33.423L150.518 1.7534H146.056L136.426 24.1784L126.978 1.74861H122.456L135.797 33.4183L136.917 33.423ZM107.515 33.423L121.121 1.7534H116.664L107.025 24.1784L97.5837 1.74861H93.0547L106.395 33.4183L107.515 33.423ZM79.5227 19.891L84.1785 8.56247L88.9635 19.891L90.7364 23.9367L94.6362 33.1981H99.1197L85.8198 1.7534H82.6545L69.5292 33.1981H73.9721L77.824 23.9367L79.5227 19.891ZM54.6622 33.0306C56.0807 33.5277 57.5758 33.7707 59.0787 33.7484C61.6945 33.7484 63.839 32.9652 65.5122 31.3989C67.1853 29.8326 68.0227 27.8517 68.0243 25.456C68.0243 23.341 67.5769 21.569 66.6821 20.1398C65.7873 18.7107 63.8885 17.0582 60.9856 15.1825L60.3372 14.7758C56.7676 12.4694 54.9836 10.5371 54.9852 8.97876C54.9745 8.46129 55.0859 7.94861 55.3104 7.48222C55.5348 7.01584 55.866 6.60888 56.2771 6.29438C57.1368 5.59577 58.2445 5.24723 59.6003 5.24883C60.7666 5.25717 61.9179 5.51242 62.9785 5.99771C64.3085 6.63442 65.5463 7.4481 66.6582 8.41656V3.31332C65.5911 2.62253 64.4375 2.0755 63.2273 1.68641C62.1097 1.33342 60.9446 1.15429 59.7726 1.15528C57.1456 1.15528 54.9971 1.93844 53.3271 3.50474C51.6572 5.07103 50.8246 7.07513 50.8294 9.51708C50.8294 11.254 51.2624 12.7565 52.1381 14.0126C53.0137 15.2687 55.1574 17.0487 58.5835 19.3383C60.791 20.7898 62.1866 21.9063 62.7704 22.6878C63.3579 23.4588 63.6681 24.4055 63.6508 25.3746C63.6508 26.6155 63.217 27.5997 62.3493 28.327C61.4816 29.0543 60.2973 29.4187 58.7964 29.4203C57.3926 29.4237 56.0136 29.0503 54.8033 28.3389C53.5544 27.6164 52.2441 26.4409 50.8724 24.8124V30.7458C51.9868 31.7307 53.2709 32.5049 54.6622 33.0306Z"
        fill="#fff" />
</svg>